Coordinates
version=1
nRows=8
nColumns=40
inDegrees=yes

Units are S.I. units (second, meters, Newtons, ...)
If the header above contains a line with 'inDegrees', this indicates whether rotational values are in degrees (yes) or radians (no).

endheader
time	pelvis_tilt	pelvis_list	pelvis_rotation	pelvis_tx	pelvis_ty	pelvis_tz	hip_flexion_r	hip_adduction_r	hip_rotation_r	knee_angle_r	knee_angle_r_beta	ankle_angle_r	subtalar_angle_r	mtp_angle_r	hip_flexion_l	hip_adduction_l	hip_rotation_l	knee_angle_l	knee_angle_l_beta	ankle_angle_l	subtalar_angle_l	mtp_angle_l	lumbar_extension	lumbar_bending	lumbar_rotation	arm_flex_r	arm_add_r	arm_rot_r	elbow_flex_r	pro_sup_r	wrist_flex_r	wrist_dev_r	arm_flex_l	arm_add_l	arm_rot_l	elbow_flex_l	pro_sup_l	wrist_flex_l	wrist_dev_l
      1.60000000	      6.00195742	     -3.50757756	      0.59533767	     -0.31461587	      0.94804215	     -1.04265861	     37.38039003	      0.23629574	      5.63099635	      9.36595250	      0.16346671	    -14.83137212	      0.00000000	      0.00000000	      3.82193268	      0.84734567	     -7.51605262	     19.46587590	      0.33974363	     -2.14294051	      0.00000000	      0.00000000	    -14.58949364	      3.02588335	      2.94031180	     86.77522550	    -11.25597580	     27.03594652	     19.62634820	     85.36431294	      0.00000000	      0.00000000	     86.66451951	    -19.20198683	     32.65707967	     27.81096592	     84.67985265	      0.00000000	      0.00000000
      1.60500000	      5.95917719	     -3.50568952	      0.61639568	     -0.31504340	      0.94785516	     -1.04271345	     37.50964498	      0.21572954	      5.61204347	      9.41166540	      0.16426455	    -14.81483482	      0.00000000	      0.00000000	      3.98999044	      0.83854938	     -7.46504471	     19.63885775	      0.34276273	     -2.11286633	      0.00000000	      0.00000000	    -14.63130866	      3.03143437	      2.91743339	     86.83704093	    -11.26132480	     27.07624541	     19.65310038	     85.40240796	      0.00000000	      0.00000000	     86.77277330	    -19.23849857	     32.89081278	     27.82585675	     84.54802164	      0.00000000	      0.00000000
      1.61000000	      5.94486630	     -3.53065922	      0.60853164	     -0.31541976	      0.94770870	     -1.04264313	     37.59716136	      0.24957413	      5.56953628	      9.43040621	      0.16459164	    -14.88011585	      0.00000000	      0.00000000	      4.11194721	      0.78097720	     -7.53500307	     19.79210669	      0.34543743	     -2.10858726	      0.00000000	      0.00000000	    -14.69822901	      3.05215415	      2.94997862	     86.89014697	    -11.23677908	     26.84353704	     19.63138970	     85.41068661	      0.00000000	      0.00000000	     86.84944841	    -19.17906098	     32.75296228	     27.77739873	     84.57404257	      0.00000000	      0.00000000
      1.61500000	      5.91923456	     -3.51245837	      0.65812868	     -0.31589420	      0.94750872	     -1.04272278	     37.71000014	      0.19930588	      5.45215587	      9.47057499	      0.16529272	    -14.92083700	      0.00000000	      0.00000000	      4.26004050	      0.79376753	     -7.51000116	     19.94855443	      0.34816796	     -2.05925039	      0.00000000	      0.00000000	    -14.76900164	      3.04680786	      2.91168504	     86.99945625	    -11.24292276	     26.96118018	     19.57562561	     85.39259872	      0.00000000	      0.00000000	     86.93293264	    -19.16482264	     32.74210368	     27.79487423	     84.62112836	      0.00000000	      0.00000000
      1.62000000	      5.88512705	     -3.55503595	      0.68305702	     -0.31636255	      0.94727573	     -1.04270364	     37.83869381	      0.22354272	      5.41083778	      9.53101070	      0.16634752	    -14.91494037	      0.00000000	      0.00000000	      4.46024604	      0.71490943	     -7.49664679	     20.21285069	      0.35278080	     -1.99857614	      0.00000000	      0.00000000	    -14.82256683	      3.07875049	      2.92563344	     87.03429472	    -11.32194408	     26.94913833	     19.71704729	     85.38173136	      0.00000000	      0.00000000	     87.12446423	    -19.18201965	     33.31073144	     27.74356969	     84.36244113	      0.00000000	      0.00000000
      1.62500000	      5.79347424	     -3.55430844	      0.65720046	     -0.31646825	      0.94705299	     -1.04270919	     37.98696223	      0.24863759	      5.40304841	      9.52897106	      0.16631192	    -14.88174643	      0.00000000	      0.00000000	      4.64648848	      0.69918694	     -7.55567937	     20.37671925	      0.35564084	     -1.92950048	      0.00000000	      0.00000000	    -14.77248056	      3.09524744	      2.91345664	     87.08079797	    -11.23629713	     26.93175670	     19.61027902	     85.41385038	      0.00000000	      0.00000000	     87.03768563	    -19.18252789	     32.79135713	     27.82459004	     84.58313434	      0.00000000	      0.00000000
      1.63000000	      5.76857816	     -3.53979915	      0.67078575	     -0.31702884	      0.94680247	     -1.04272144	     38.11031866	      0.22386367	      5.37871598	      9.58560964	      0.16730045	    -14.84450020	      0.00000000	      0.00000000	      4.84332338	      0.68174914	     -7.58927468	     20.62033185	      0.35989268	     -1.92460670	      0.00000000	      0.00000000	    -14.85282510	      3.07852647	      2.90398080	     87.17743517	    -11.23395073	     26.94108905	     19.59414327	     85.31098815	      0.00000000	      0.00000000	     87.15912554	    -19.18061149	     32.87949271	     27.84245646	     84.54750428	      0.00000000	      0.00000000
      1.63500000	      5.76316559	     -3.53389202	      0.73722112	     -0.31795713	      0.94648545	     -1.04277830	     38.22523169	      0.18196413	      5.35967548	      9.60681083	      0.16767048	    -14.87082069	      0.00000000	      0.00000000	      5.09397771	      0.65513338	     -7.55604807	     20.97216104	      0.36603326	     -1.83695740	      0.00000000	      0.00000000	    -15.00813034	      3.07329267	      2.87304029	     87.36177466	    -11.42901138	     27.88024270	     19.74095479	     85.10022655	      0.00000000	      0.00000000	     87.46542303	    -19.36295101	     34.04507275	     28.01625787	     83.81097512	      0.00000000	      0.00000000
